<svg xmlns="http://www.w3.org/2000/svg" width="800" height="800" viewBox="0 0 800 800">
    <path d="M424-408l-86-86q-11-11-28-11t-28,11q-11,11-11,28t11,28L396-324q12,12,28,12t28-12L678-550q11-11,11-28t-11-28q-11-11-28-11t-28,11ZM480-80q-83,0-156-31.5T197-197q-54-54-85.5-127T80-480q0-83,31.5-156T197-763q54-54,127-85.5T480-880q83,0,156,31.5T763-763q54,54,85.5,127T880-480q0,83-31.5,156T763-197q-54,54-127,85.5T480-80Zm0-80q134,0,227-93t93-227q0-134-93-227T480-800q-134,0-227,93T160-480q0,134,93,227T480-160ZM480-480Z" transform="translate(-80 880)"/>
</svg>
