<svg width="8" height="6" viewBox="0 0 8 6" fill="none" xmlns="http://www.w3.org/2000/svg">
  <path d="M-0.00195312 1.50049C-0.00195312 1.43018 0.0117188 1.36572 0.0390625 1.30713C0.0664062 1.24463 0.101562 1.19189 0.144531 1.14893C0.191406 1.10205 0.244141 1.06494 0.302734 1.0376C0.365234 1.01025 0.431641 0.996582 0.501953 0.996582C0.576172 0.996582 0.640625 1.01025 0.695312 1.0376C0.75 1.06104 0.802734 1.09814 0.853516 1.14893L4 4.29541L7.14648 1.14893C7.24805 1.04736 7.36523 0.996582 7.49805 0.996582C7.56836 0.996582 7.63281 1.01025 7.69141 1.0376C7.75391 1.06494 7.80664 1.10205 7.84961 1.14893C7.89648 1.19189 7.93359 1.24463 7.96094 1.30713C7.98828 1.36572 8.00195 1.43018 8.00195 1.50049C8.00195 1.63721 7.95312 1.75439 7.85547 1.85205L4.35156 5.35596C4.25391 5.45361 4.13672 5.50244 4 5.50244C3.86328 5.50244 3.74609 5.45361 3.64844 5.35596L0.144531 1.85205C0.046875 1.75439 -0.00195312 1.63721 -0.00195312 1.50049Z" fill="black" />
</svg>
