<svg xmlns="http://www.w3.org/2000/svg" width="720" height="800" viewBox="0 0 720 800">
    <path id="format-list-numbered-rtl" d="M710-80q-13,0-21.5-8.5T680-110q0-13,8.5-21.5T710-140h70v-30H750q-13,0-21.5-8.5T720-200q0-13,8.5-21.5T750-230h30v-30H710q-13,0-21.5-8.5T680-290q0-13,8.5-21.5T710-320h90q17,0,28.5,11.5T840-280v40q0,17-11.5,28.5T800-200q17,0,28.5,11.5T840-160v40q0,17-11.5,28.5T800-80Zm-7-280q-9,0-16-7t-7-16v-87q0-17,11.5-28.5T720-510h60v-30H710q-13,0-21.5-8.5T680-570q0-13,8.5-21.5T710-600h90q17,0,28.5,11.5T840-560v70q0,17-11.5,28.5T800-450H740v30h70q13,0,21.5,8.5T840-390q0,13-8.5,21.5T810-360Zm67-280q-13,0-21.5-8.5T740-670V-820H710q-13,0-21.5-8.5T680-850q0-13,8.5-21.5T710-880h68a21.161,21.161,0,0,1,15.5,6.5A21.161,21.161,0,0,1,800-858v188q0,13-8.5,21.5T770-640ZM150-209a28.941,28.941,0,0,1-21.375-8.675,29.287,29.287,0,0,1-8.625-21.5Q120-252,128.625-260.5A29.25,29.25,0,0,1,150-269H561a28.941,28.941,0,0,1,21.375,8.675,29.287,29.287,0,0,1,8.625,21.5Q591-226,582.375-217.5A29.25,29.25,0,0,1,561-209Zm0-243a28.941,28.941,0,0,1-21.375-8.675,29.287,29.287,0,0,1-8.625-21.5Q120-495,128.625-503.5A29.25,29.25,0,0,1,150-512H561a28.941,28.941,0,0,1,21.375,8.675,29.287,29.287,0,0,1,8.625,21.5Q591-469,582.375-460.5A29.25,29.25,0,0,1,561-452Zm0-243a28.941,28.941,0,0,1-21.375-8.675,29.287,29.287,0,0,1-8.625-21.5Q120-738,128.625-746.5A29.25,29.25,0,0,1,150-755H561a28.941,28.941,0,0,1,21.375,8.675,29.287,29.287,0,0,1,8.625,21.5Q591-712,582.375-703.5A29.25,29.25,0,0,1,561-695Z" transform="translate(-120 880)"/>
</svg>
