<svg width="14" height="14" viewBox="0 0 14 14" fill="none" xmlns="http://www.w3.org/2000/svg">
    <path d="M13.6719 13C13.6719 13.0938 13.6536 13.1823 13.6172 13.2656C13.5807 13.3438 13.5312 13.4141 13.4688 13.4766C13.4062 13.5339 13.3333 13.5807 13.25 13.6172C13.1719 13.6484 13.0885 13.6641 13 13.6641C12.8177 13.6641 12.6615 13.599 12.5312 13.4688L8.9375 9.875C8.46354 10.2396 7.94792 10.5182 7.39062 10.7109C6.83854 10.9036 6.26302 11 5.66406 11C5.17448 11 4.70052 10.9375 4.24219 10.8125C3.78906 10.6823 3.36458 10.5026 2.96875 10.2734C2.57812 10.0391 2.21875 9.76042 1.89062 9.4375C1.56771 9.11458 1.29167 8.75521 1.0625 8.35938C0.833333 7.96354 0.653646 7.53906 0.523438 7.08594C0.398438 6.6276 0.335938 6.15365 0.335938 5.66406C0.335938 5.17448 0.398438 4.70312 0.523438 4.25C0.653646 3.79688 0.833333 3.3724 1.0625 2.97656C1.29688 2.58073 1.57552 2.22135 1.89844 1.89844C2.22135 1.57552 2.58073 1.29948 2.97656 1.07031C3.3724 0.835938 3.79688 0.65625 4.25 0.53125C4.70312 0.401042 5.17448 0.335938 5.66406 0.335938C6.39844 0.335938 7.08854 0.476562 7.73438 0.757812C8.38542 1.03385 8.95052 1.41406 9.42969 1.89844C9.91406 2.38281 10.2969 2.94792 10.5781 3.59375C10.8594 4.23958 11 4.92969 11 5.66406C11 6.26302 10.9036 6.84115 10.7109 7.39844C10.5182 7.95052 10.2396 8.46354 9.875 8.9375L13.4688 12.5312C13.5365 12.599 13.5859 12.6693 13.6172 12.7422C13.6536 12.8151 13.6719 12.901 13.6719 13ZM5.66406 9.66406H5.74219C6.28385 9.66406 6.79167 9.55729 7.26562 9.34375C7.74479 9.125 8.16146 8.83333 8.51562 8.46875C8.86979 8.09896 9.14844 7.67448 9.35156 7.19531C9.5599 6.71094 9.66406 6.20052 9.66406 5.66406C9.66406 5.11198 9.5599 4.59375 9.35156 4.10938C9.14323 3.61979 8.85677 3.19531 8.49219 2.83594C8.13281 2.47135 7.70833 2.1849 7.21875 1.97656C6.73438 1.76823 6.21615 1.66406 5.66406 1.66406C5.11198 1.66406 4.59115 1.76823 4.10156 1.97656C3.61719 2.1849 3.19271 2.47135 2.82812 2.83594C2.46875 3.19531 2.1849 3.61979 1.97656 4.10938C1.76823 4.59375 1.66406 5.11198 1.66406 5.66406C1.66406 6.21615 1.76823 6.73698 1.97656 7.22656C2.1849 7.71094 2.46875 8.13542 2.82812 8.5C3.19271 8.85938 3.61719 9.14323 4.10156 9.35156C4.59115 9.5599 5.11198 9.66406 5.66406 9.66406Z" fill="black"/>
</svg>
