<svg width="7" height="8" viewBox="0 0 7 8" xmlns="http://www.w3.org/2000/svg">
    <path d="M0.5 4C0.5 3.75521 0.557292 3.52604 0.671875 3.3125C0.786458 3.09635 0.94401 2.91927 1.14453 2.78125L4.92969 0.179688C5.01823 0.119792 5.10807 0.0755208 5.19922 0.046875C5.29036 0.015625 5.39062 0 5.5 0C5.63542 0 5.76432 0.0260417 5.88672 0.078125C6.00911 0.130208 6.11458 0.201823 6.20312 0.292969C6.29427 0.38151 6.36589 0.485677 6.41797 0.605469C6.47266 0.72526 6.5 0.854167 6.5 0.992188V7.00781C6.5 7.14583 6.47266 7.27474 6.41797 7.39453C6.36589 7.51432 6.29427 7.61979 6.20312 7.71094C6.11458 7.79948 6.00911 7.86979 5.88672 7.92188C5.76432 7.97396 5.63542 8 5.5 8C5.29427 8 5.10417 7.9401 4.92969 7.82031L1.14453 5.21875C0.94401 5.08073 0.786458 4.90495 0.671875 4.69141C0.557292 4.47526 0.5 4.24479 0.5 4Z"/>
</svg>
