<svg width="7" height="8" viewBox="0 0 7 8" xmlns="http://www.w3.org/2000/svg">
    <path d="M0.5 7.00781V0.992188C0.5 0.854167 0.526042 0.72526 0.578125 0.605469C0.632812 0.485677 0.704427 0.38151 0.792969 0.292969C0.884115 0.201823 0.989583 0.130208 1.10938 0.078125C1.23177 0.0260417 1.36198 0 1.5 0C1.70573 0 1.89583 0.0598958 2.07031 0.179688L5.85547 2.78125C6.05859 2.92188 6.21615 3.09896 6.32812 3.3125C6.44271 3.52604 6.5 3.75521 6.5 4C6.5 4.24479 6.44271 4.47396 6.32812 4.6875C6.21615 4.90104 6.05859 5.07812 5.85547 5.21875L2.07031 7.82031C1.89583 7.9401 1.70573 8 1.5 8C1.36198 8 1.23177 7.97396 1.10938 7.92188C0.989583 7.86979 0.884115 7.79948 0.792969 7.71094C0.704427 7.61979 0.632812 7.51432 0.578125 7.39453C0.526042 7.27474 0.5 7.14583 0.5 7.00781Z"/>
</svg>
