<svg width="13" height="7" viewBox="0 0 13 7" xmlns="http://www.w3.org/2000/svg">
    <path d="M0.399902 0.5C0.399902 0.364583 0.449382 0.247396 0.54834 0.148438C0.647298 0.0494792 0.764486 0 0.899902 0C1.03532 0 1.15251 0.0494792 1.25146 0.148438L6.3999 5.28906L11.5483 0.148438C11.6473 0.0494792 11.7645 0 11.8999 0C12.0353 0 12.1525 0.0494792 12.2515 0.148438C12.3504 0.247396 12.3999 0.364583 12.3999 0.5C12.3999 0.635417 12.3504 0.752604 12.2515 0.851562L6.75146 6.35156C6.65251 6.45052 6.53532 6.5 6.3999 6.5C6.26449 6.5 6.1473 6.45052 6.04834 6.35156L0.54834 0.851562C0.449382 0.752604 0.399902 0.635417 0.399902 0.5Z" />
</svg>
