<svg width="13" height="7" viewBox="0 0 13 7" xmlns="http://www.w3.org/2000/svg">
    <path d="M0.399902 6.5C0.399902 6.36458 0.449382 6.2474 0.54834 6.14844L6.04834 0.648438C6.1473 0.549479 6.26449 0.5 6.3999 0.5C6.53532 0.5 6.65251 0.549479 6.75146 0.648438L12.2515 6.14844C12.3504 6.2474 12.3999 6.36458 12.3999 6.5C12.3999 6.63542 12.3504 6.7526 12.2515 6.85156C12.1525 6.95052 12.0353 7 11.8999 7C11.7645 7 11.6473 6.95052 11.5483 6.85156L6.3999 1.71094L1.25146 6.85156C1.15251 6.95052 1.03532 7 0.899902 7C0.764486 7 0.647298 6.95052 0.54834 6.85156C0.449382 6.7526 0.399902 6.63542 0.399902 6.5Z" />
</svg>
