<svg xmlns="http://www.w3.org/2000/svg" width="777" height="780" viewBox="0 0 777 780">
    <path d="M356-120H180q-24,0-42-18t-18-42V-356q44-5,75.5-34.5T227-463q0-43-31.5-72.5T120-570V-746q0-24,18-42t42-18H357q11-40,39.5-67T465-900q40,0,68.5,27T573-806H746q24,0,42,18t18,42v173q40,11,65.5,41.5T897-461q0,40-25.5,67T806-356v176q0,24-18,42t-42,18H570q-5-48-35.5-77.5T463-227q-41,0-71.5,29.5T356-120ZM180-180H310q25-61,69.888-84t83-23Q501-287,546-264t70,84H746V-415h45q20,0,33-13t13-33q0-20-13-33t-33-13H746V-746H511v-48q0-20-13-33t-33-13q-20,0-33,13t-13,33v48H180v130a160.962,160.962,0,0,1,77.575,59.686Q287-514.445,287-462.777,287-412,257.5-370A162.293,162.293,0,0,1,180-310ZM509-510Z" transform="translate(-120 900)"/>
</svg>
