<svg xmlns="http://www.w3.org/2000/svg" width="816" height="720" viewBox="0 0 816 720">
    <path id="fact-check" d="M132-120q-24,0-42-18T72-180V-780q0-24,18-42t42-18H828q24,0,42,18t18,42v600q0,24-18,42t-42,18Zm0-60H828V-780H132ZM360-280q17,0,28.5-11.5T400-320q0-17-11.5-28.5T360-360H240q-17,0-28.5,11.5T200-320q0,17,11.5,28.5T240-280ZM582-473l-29-29q-12-12-28-11.5T497-501a42.189,42.189,0,0,0-11.5,28q-.5,16,11.5,28l64,64q9,9,21,9t21-9L752-530q12-12,12-28t-12-28a38.935,38.935,0,0,0-28.5-12A38.935,38.935,0,0,0,695-586ZM360-440q17,0,28.5-11.5T400-480q0-17-11.5-28.5T360-520H240q-17,0-28.5,11.5T200-480q0,17,11.5,28.5T240-440Zm0-160q17,0,28.5-11.5T400-640q0-17-11.5-28.5T360-680H240q-17,0-28.5,11.5T200-640q0,17,11.5,28.5T240-600ZM132-180v0Z" transform="translate(-72 840)"/>
</svg>
