<svg xmlns="http://www.w3.org/2000/svg" width="30" height="36" viewBox="0 0 30 36">
  <g id="files" transform="translate(7 0)">
    <path d="M-1573-2003h-1v-2h1a2,2,0,0,0,2-2v-13c0-1-1.017-1-2-1h-3a1,1,0,0,1-1-1v-3.082c0-.855,0-1.74-.711-1.922l-7.289,0a2,2,0,0,0-2,2v1h-2v-1a4,4,0,0,1,4-4h8c1.063,0,2.082.988,3.794,2.734l.061.063c.237.242.452.46.671.678.191.192.389.386.563.558l.177.174c1.746,1.711,2.734,2.731,2.734,3.793v14A4,4,0,0,1-1573-2003Z" transform="translate(1592 2029)"/>
    <path d="M-1573-2003h-1v-2h1a2,2,0,0,0,2-2v-13c0-1-1.017-1-2-1h-3a1,1,0,0,1-1-1v-3.082c0-.855,0-1.74-.711-1.922l-7.289,0a2,2,0,0,0-2,2v1h-2v-1a4,4,0,0,1,4-4h8c1.063,0,2.082.988,3.794,2.734l.061.063c.237.242.452.46.671.678.191.192.389.386.563.558l.177.174c1.746,1.711,2.734,2.731,2.734,3.793v14A4,4,0,0,1-1573-2003Z" transform="translate(1587 2034)"/>
    <path d="M20.266,4.207c-.244-.24-.494-.484-.74-.732s-.492-.5-.732-.74C17.082.988,16.063,0,15,0H7A4.005,4.005,0,0,0,3,4V22a4.005,4.005,0,0,0,4,4H19a4.005,4.005,0,0,0,4-4V8C23,6.938,22.012,5.918,20.266,4.207ZM21,22a2,2,0,0,1-2,2H7a2,2,0,0,1-2-2V4A2,2,0,0,1,7,2l7.289,0c.721.184.711,1.07.711,1.957V7a1,1,0,0,0,1,1h3c1,0,2,.005,2,1Z" transform="translate(-10 10)"/>
  </g>
</svg>
