<svg xmlns="http://www.w3.org/2000/svg" width="788" height="520" viewBox="0 0 788 520">
    <path id="manage-search" d="M110-200a28.941,28.941,0,0,1-21.375-8.675A29.287,29.287,0,0,1,80-230.175Q80-243,88.625-251.5A29.25,29.25,0,0,1,110-260H450a28.941,28.941,0,0,1,21.375,8.675,29.287,29.287,0,0,1,8.625,21.5Q480-217,471.375-208.5A29.25,29.25,0,0,1,450-200Zm0-210a28.941,28.941,0,0,1-21.375-8.675A29.287,29.287,0,0,1,80-440.175Q80-453,88.625-461.5A29.25,29.25,0,0,1,110-470H250a28.941,28.941,0,0,1,21.375,8.675,29.287,29.287,0,0,1,8.625,21.5Q280-427,271.375-418.5A29.25,29.25,0,0,1,250-410Zm0-210a28.941,28.941,0,0,1-21.375-8.675A29.287,29.287,0,0,1,80-650.175Q80-663,88.625-671.5A29.25,29.25,0,0,1,110-680H250a28.941,28.941,0,0,1,21.375,8.675,29.287,29.287,0,0,1,8.625,21.5Q280-637,271.375-628.5A29.25,29.25,0,0,1,250-620ZM560-320q-83,0-141.5-58.5T360-520q0-83,58.5-141.5T560-720q83,0,141.5,58.5T760-520a194.778,194.778,0,0,1-10,62,189.856,189.856,0,0,1-30,56L859-263q9,9,9,21t-9,21q-9,9-21,9t-21-9L678-360a189.854,189.854,0,0,1-56,30A194.779,194.779,0,0,1,560-320Zm-.235-60Q618-380,659-420.765t41-99Q700-578,659.235-619t-99-41Q502-660,461-619.235t-41,99Q420-462,460.765-421T559.765-380Z" transform="translate(-80 720)"/>
</svg>
