<svg width="5" height="8" viewBox="0 0 5 8" fill="none" xmlns="http://www.w3.org/2000/svg">
  <path d="M0.628906 7.5C0.542969 7.5 0.46224 7.48438 0.386719 7.45312C0.311198 7.42188 0.244792 7.37891 0.1875 7.32422C0.130208 7.26693 0.0846354 7.20182 0.0507812 7.12891C0.0169271 7.05339 0 6.97266 0 6.88672V1.11328C0 1.02734 0.0169271 0.947917 0.0507812 0.875C0.0846354 0.799479 0.130208 0.734375 0.1875 0.679688C0.244792 0.622396 0.311198 0.578125 0.386719 0.546875C0.46224 0.515625 0.542969 0.5 0.628906 0.5C0.785156 0.5 0.921875 0.550781 1.03906 0.652344L4.19922 3.35547C4.39974 3.52734 4.5 3.74219 4.5 4C4.5 4.1276 4.47396 4.24609 4.42188 4.35547C4.36979 4.46484 4.29557 4.5612 4.19922 4.64453L1.03906 7.34766C0.921875 7.44922 0.785156 7.5 0.628906 7.5Z" fill="black" />
</svg>
