<svg width="5" height="8" viewBox="0 0 5 8" fill="none" xmlns="http://www.w3.org/2000/svg">
  <path d="M0.5 4C0.5 3.8724 0.526042 3.75391 0.578125 3.64453C0.630208 3.53516 0.704427 3.4388 0.800781 3.35547L3.96094 0.652344C4.07812 0.550781 4.21484 0.5 4.37109 0.5C4.45703 0.5 4.53776 0.515625 4.61328 0.546875C4.6888 0.578125 4.75521 0.622396 4.8125 0.679688C4.86979 0.734375 4.91536 0.799479 4.94922 0.875C4.98307 0.947917 5 1.02734 5 1.11328V6.88672C5 6.97266 4.98307 7.05339 4.94922 7.12891C4.91536 7.20182 4.86979 7.26693 4.8125 7.32422C4.75521 7.37891 4.6888 7.42188 4.61328 7.45312C4.53776 7.48438 4.45703 7.5 4.37109 7.5C4.21484 7.5 4.07812 7.44922 3.96094 7.34766L0.800781 4.64453C0.704427 4.5612 0.630208 4.46484 0.578125 4.35547C0.526042 4.24609 0.5 4.1276 0.5 4Z" fill="black"/>
</svg>
