<svg width="12" height="16" viewBox="0 0 12 16" xmlns="http://www.w3.org/2000/svg">
    <path d="M0 6C0 5.86458 0.0494792 5.7474 0.148438 5.64844L5.60938 0.164062C5.71875 0.0546875 5.84896 0 6 0C6.15104 0 6.28125 0.0546875 6.39062 0.164062L11.8516 5.64844C11.9505 5.7474 12 5.86458 12 6C12 6.13542 11.9505 6.2526 11.8516 6.35156C11.7526 6.45052 11.6354 6.5 11.5 6.5C11.3646 6.5 11.2474 6.45052 11.1484 6.35156L6 1.1875L0.851562 6.35156C0.752604 6.45052 0.635417 6.5 0.5 6.5C0.364583 6.5 0.247396 6.45052 0.148438 6.35156C0.0494792 6.2526 0 6.13542 0 6ZM0 10C0 9.86458 0.0494792 9.7474 0.148438 9.64844C0.247396 9.54948 0.364583 9.5 0.5 9.5C0.635417 9.5 0.752604 9.54948 0.851562 9.64844L6 14.8125L11.1484 9.64844C11.2474 9.54948 11.3646 9.5 11.5 9.5C11.6354 9.5 11.7526 9.54948 11.8516 9.64844C11.9505 9.7474 12 9.86458 12 10C12 10.1354 11.9505 10.2526 11.8516 10.3516L6.39062 15.8359C6.28125 15.9453 6.15104 16 6 16C5.84896 16 5.71875 15.9453 5.60938 15.8359L0.148438 10.3516C0.0494792 10.2526 0 10.1354 0 10Z"/>
</svg>
