<svg version="1.1" id="Layer_1" xmlns="http://www.w3.org/2000/svg" xmlns:xlink="http://www.w3.org/1999/xlink" x="0px" y="0px"
	 viewBox="0 0 40 40" style="enable-background:new 0 0 40 40;" xml:space="preserve">
<g>
	<rect x="0.5" y="6.5" style="fill:#F78F8F;" width="39" height="27"/>
	<path style="fill:#C74343;" d="M39,7v26H1V7H39 M40,6H0v28h40V6L40,6z"/>
</g>
<rect x="11.999" y="9" style="fill:#FFFFFF;" width="27" height="2"/>
<rect x="11.999" y="14" style="fill:#FFFFFF;" width="27" height="2"/>
<rect x="0.999" y="24" style="fill:#FFFFFF;" width="38" height="2"/>
<rect x="1.002" y="19" style="fill:#FFFFFF;" width="38" height="2"/>
<rect x="1.002" y="29" style="fill:#FFFFFF;" width="38" height="2"/>
<g>
	<rect x="0.5" y="6.5" style="fill:#8BB7F0;" width="19" height="14"/>
	<path style="fill:#4E7AB5;" d="M19,7v13H1V7H19 M20,6H0v15h20V6L20,6z"/>
</g>
<polygon style="fill:#FFFFFF;" points="2.5,7 2.964,7.988 4,8.146 3.25,8.915 3.427,10 2.5,9.488 1.573,10 1.75,8.915 1,8.146 
	2.036,7.988 "/>
<polygon style="fill:#FFFFFF;" points="5.5,10 5.964,10.988 7,11.146 6.25,11.915 6.427,13 5.5,12.488 4.573,13 4.75,11.915 
	4,11.146 5.036,10.988 "/>
<polygon style="fill:#FFFFFF;" points="8.5,7 8.964,7.988 10,8.146 9.25,8.915 9.427,10 8.5,9.488 7.573,10 7.75,8.915 7,8.146 
	8.036,7.988 "/>
<polygon style="fill:#FFFFFF;" points="11.5,10 11.964,10.988 13,11.146 12.25,11.915 12.427,13 11.5,12.488 10.573,13 
	10.75,11.915 10,11.146 11.036,10.988 "/>
<polygon style="fill:#FFFFFF;" points="14.5,7 14.964,7.988 16,8.146 15.25,8.915 15.427,10 14.5,9.488 13.573,10 13.75,8.915 
	13,8.146 14.036,7.988 "/>
<polygon style="fill:#FFFFFF;" points="2.5,13 2.964,13.988 4,14.146 3.25,14.915 3.427,16 2.5,15.488 1.573,16 1.75,14.915 
	1,14.146 2.036,13.988 "/>
<polygon style="fill:#FFFFFF;" points="8.5,13 8.964,13.988 10,14.146 9.25,14.915 9.427,16 8.5,15.488 7.573,16 7.75,14.915 
	7,14.146 8.036,13.988 "/>
<polygon style="fill:#FFFFFF;" points="14.464,13.012 14.927,14 15.964,14.158 15.214,14.927 15.391,16.012 14.464,15.5 
	13.536,16.012 13.714,14.927 12.964,14.158 14,14 "/>
<polygon style="fill:#FFFFFF;" points="5.5,16 5.964,16.988 7,17.146 6.25,17.915 6.427,19 5.5,18.488 4.573,19 4.75,17.915 
	4,17.146 5.036,16.988 "/>
<polygon style="fill:#FFFFFF;" points="11.5,16 11.964,16.988 13,17.146 12.25,17.915 12.427,19 11.5,18.488 10.573,19 
	10.75,17.915 10,17.146 11.036,16.988 "/>
<polygon style="fill:#FFFFFF;" points="17.5,16 17.964,16.988 19,17.146 18.25,17.915 18.427,19 17.5,18.488 16.573,19 
	16.75,17.915 16,17.146 17.036,16.988 "/>
<polygon style="fill:#FFFFFF;" points="17.5,10 17.964,10.988 19,11.146 18.25,11.915 18.427,13 17.5,12.488 16.573,13 
	16.75,11.915 16,11.146 17.036,10.988 "/>
</svg>
